<svg width="1792" height="512" viewBox="0 0 1792 512" fill="none" xmlns="http://www.w3.org/2000/svg">
<path fill-rule="evenodd" clip-rule="evenodd" d="M0 0V512H1792V0H0ZM341.333 85.3333H170.667L85.3333 170.667V341.333L170.667 426.667H341.333L426.667 341.333H170.667V170.667H426.667L341.333 85.3333ZM597.333 85.3333L512 170.667V341.333L597.333 426.667H853.333V256H768V341.333H597.333V170.667H853.333L768 85.3333H597.333ZM1194.67 85.3333H938.667V426.667H1194.67L1280 341.333V170.667L1194.67 85.3333ZM1450.67 170.667H1706.67L1621.33 85.3333H1365.33V426.667H1450.67V341.333H1536L1621.33 256H1450.67V170.667Z" fill="#1030FF"/>
<path d="M170.667 85.3333H341.333L426.667 170.667H170.667V341.333H426.667L341.333 426.667H170.667L85.3333 341.333V170.667L170.667 85.3333Z" fill="white"/>
<path d="M512 170.667L597.333 85.3333H768L853.333 170.667H597.333V341.333H768V256H853.333V426.667H597.333L512 341.333V170.667Z" fill="white"/>
<path fill-rule="evenodd" clip-rule="evenodd" d="M938.667 85.3333H1194.67L1280 170.667V341.333L1194.67 426.667H938.667V85.3333ZM1024 341.333V170.667H1194.67V341.333H1024Z" fill="white"/>
<path d="M1706.67 170.667H1450.67V256H1621.33L1536 341.333H1450.67V426.667H1365.33V85.3333H1621.33L1706.67 170.667Z" fill="white"/>
<path d="M1024 170.667V341.333H1194.67V170.667H1024Z" fill="#1030FF"/>
</svg>
