<svg width="512" height="512" viewBox="0 0 512 512" fill="none" xmlns="http://www.w3.org/2000/svg">
<path d="M186.182 46.5455H93.0909L46.5455 93.0909V186.182L93.0909 232.727H186.182L232.727 186.182H93.0909V93.0909H232.727L186.182 46.5455Z" fill="white"/>
<path d="M325.818 46.5455L279.273 93.0909V186.182L325.818 232.727H465.455V139.636H418.909V186.182H325.818V93.0909H465.455L418.909 46.5455H325.818Z" fill="white"/>
<path fill-rule="evenodd" clip-rule="evenodd" d="M46.5455 279.273H186.182L232.727 325.818V418.909L186.182 465.455H46.5455V279.273ZM93.0909 418.909V325.818H186.182V418.909H93.0909Z" fill="white"/>
<path d="M465.455 325.818H325.818V372.364H418.909L372.364 418.909H325.818V465.455H279.273V279.273H418.909L465.455 325.818Z" fill="white"/>
<path fill-rule="evenodd" clip-rule="evenodd" d="M0 0H512V512H0V0ZM186.182 46.5455H93.0909L46.5455 93.0909V186.182L93.0909 232.727H186.182L232.727 186.182H93.0909V93.0909H232.727L186.182 46.5455ZM325.818 46.5455L279.273 93.0909V186.182L325.818 232.727H465.455V139.636H418.909V186.182H325.818V93.0909H465.455L418.909 46.5455H325.818ZM186.182 279.273H46.5455V465.455H186.182L232.727 418.909V325.818L186.182 279.273ZM325.818 325.818H465.455L418.909 279.273H279.273V465.455H325.818V418.909H372.364L418.909 372.364H325.818V325.818Z" fill="white"/>
<path fill-rule="evenodd" clip-rule="evenodd" d="M0 0H512V512H0V0ZM186.182 46.5455H93.0909L46.5455 93.0909V186.182L93.0909 232.727H186.182L232.727 186.182H93.0909V93.0909H232.727L186.182 46.5455ZM325.818 46.5455L279.273 93.0909V186.182L325.818 232.727H465.455V139.636H418.909V186.182H325.818V93.0909H465.455L418.909 46.5455H325.818ZM186.182 279.273H46.5455V465.455H186.182L232.727 418.909V325.818L186.182 279.273ZM325.818 325.818H465.455L418.909 279.273H279.273V465.455H325.818V418.909H372.364L418.909 372.364H325.818V325.818Z" fill="#1030FF"/>
<path d="M93.0909 325.818V418.909H186.182V325.818H93.0909Z" fill="white"/>
<path d="M93.0909 325.818V418.909H186.182V325.818H93.0909Z" fill="#1030FF"/>
</svg>
